<svg xmlns="http://www.w3.org/2000/svg" width="512" height="512" viewBox="0 0 512 512">
  <defs>
    <linearGradient id="g1" x1="0" x2="1" y1="0" y2="1">
      <stop offset="0%" stop-color="#EBD2D6"/>
      <stop offset="100%" stop-color="#E5C8CD"/>
    </linearGradient>
    <!-- Hand pink (slightly deeper than bg, per brand clock color) -->
    <linearGradient id="gHand" x1="0" y1="0" x2="0" y2="1">
      <stop offset="0%" stop-color="#DDB7BF"/>
      <stop offset="100%" stop-color="#E7CCD2"/>
    </linearGradient>
    <filter id="shadow" x="-20%" y="-20%" width="140%" height="140%">
      <feDropShadow dx="0" dy="8" stdDeviation="12" flood-color="#000" flood-opacity="0.15"/>
    </filter>
  </defs>
  <!-- Tea Rose rounded background -->
  <rect x="16" y="16" width="480" height="480" rx="96" fill="url(#g1)"/>

  <!-- Countdown ring base -->
  <g transform="translate(256 256)" filter="url(#shadow)">
    <!-- Calendar page -->
    <rect x="-160" y="-170" width="320" height="320" rx="36" fill="#FFFFFF" fill-opacity="0.98"/>
    <!-- Header bar in brand pink -->
    <rect x="-160" y="-170" width="320" height="86" rx="36" fill="url(#gHand)"/>
    <!-- Binding holes -->
    <circle cx="-96" cy="-138" r="10" fill="#FFFFFF" fill-opacity="0.9"/>
    <circle cx="96" cy="-138" r="10" fill="#FFFFFF" fill-opacity="0.9"/>

    <!-- 4x3 date grid (rounded squares) -->
    <g fill="#E7CCD2">
      <rect x="-120" y="-60" width="28" height="28" rx="8"/>
      <rect x="-60" y="-60" width="28" height="28" rx="8"/>
      <rect x="0" y="-60" width="28" height="28" rx="8"/>
      <rect x="60" y="-60" width="28" height="28" rx="8"/>

      <rect x="-120" y="0" width="28" height="28" rx="8"/>
      <rect x="-60" y="0" width="28" height="28" rx="8"/>
      <rect x="0" y="0" width="28" height="28" rx="8"/>
      <rect x="60" y="0" width="28" height="28" rx="8"/>

      <rect x="-120" y="60" width="28" height="28" rx="8"/>
      <rect x="-60" y="60" width="28" height="28" rx="8"/>
      <rect x="0" y="60" width="28" height="28" rx="8"/>
      <rect x="60" y="60" width="28" height="28" rx="8"/>
    </g>
  </g>

  <!-- Small tick marks for time feeling -->
  <g transform="translate(256 256)" stroke="#FFFFFF" stroke-opacity="0.9" stroke-width="8">
    <line x1="0" y1="-188" x2="0" y2="-168"/>
    <line x1="188" y1="0" x2="168" y2="0"/>
    <line x1="0" y1="188" x2="0" y2="168"/>
    <line x1="-188" y1="0" x2="-168" y2="0"/>
  </g>
</svg>


