<svg xmlns="http://www.w3.org/2000/svg" width="512" height="512" viewBox="0 0 512 512">
  <defs>
    <linearGradient id="g1" x1="0" x2="1" y1="0" y2="1">
      <stop offset="0%" stop-color="#EBD2D6"/>
      <stop offset="100%" stop-color="#E5C8CD"/>
    </linearGradient>
    <!-- Hand pink (slightly deeper than bg, per brand clock color) -->
    <linearGradient id="gHand" x1="0" y1="0" x2="0" y2="1">
      <stop offset="0%" stop-color="#DDB7BF"/>
      <stop offset="100%" stop-color="#E7CCD2"/>
    </linearGradient>
    <filter id="shadow" x="-20%" y="-20%" width="140%" height="140%">
      <feDropShadow dx="0" dy="8" stdDeviation="12" flood-color="#000" flood-opacity="0.15"/>
    </filter>
  </defs>
  <!-- Tea Rose rounded background -->
  <rect x="16" y="16" width="480" height="480" rx="96" fill="url(#g1)"/>

  <!-- Countdown ring base -->
  <g transform="translate(256 256)" filter="url(#shadow)">
    <!-- Calendar page (smaller & perfectly centered) -->
    <rect x="-150" y="-138" width="300" height="288" rx="48" fill="#FFFFFF" fill-opacity="0.98"/>
    <!-- Header bar in brand pink (perfectly centered radius) -->
    <rect x="-150" y="-138" width="300" height="84" rx="42" fill="url(#gHand)"/>
    <!-- Binding holes (cute, larger) -->
    <circle cx="-90" cy="-96" r="12" fill="#FFFFFF" fill-opacity="0.95"/>
    <circle cx="90" cy="-96" r="12" fill="#FFFFFF" fill-opacity="0.95"/>

    <!-- 4x3 date grid (circles for a cuter look) -->
    <g fill="#E7CCD2">
      <!-- centered rows -->
      <!-- row 1 (above center) -->
      <circle cx="-90" cy="-8" r="12"/>
      <circle cx="-30" cy="-8" r="12"/>
      <circle cx="30" cy="-8" r="12"/>
      <circle cx="90" cy="-8" r="12"/>
      <!-- row 2 (center) -->
      <circle cx="-90" cy="52" r="12"/>
      <circle cx="-30" cy="52" r="12"/>
      <circle cx="30" cy="52" r="12"/>
      <circle cx="90" cy="52" r="12"/>
      <!-- row 3 (below center) -->
      <circle cx="-90" cy="112" r="12"/>
      <circle cx="-30" cy="112" r="12"/>
      <circle cx="30" cy="112" r="12"/>
      <circle cx="90" cy="112" r="12"/>
      <!-- cute highlight on center row -->
      <circle cx="30" cy="52" r="12" fill="#DDB7BF"/>
    </g>
  </g>

  <!-- Small tick marks for time feeling -->
  <g transform="translate(256 256)" stroke="#FFFFFF" stroke-opacity="0.9" stroke-width="8">
    <line x1="0" y1="-188" x2="0" y2="-168"/>
    <line x1="188" y1="0" x2="168" y2="0"/>
    <line x1="0" y1="188" x2="0" y2="168"/>
    <line x1="-188" y1="0" x2="-168" y2="0"/>
  </g>
</svg>


